Coordinates
version=1
nRows=13
nColumns=40
inDegrees=yes

Units are S.I. units (second, meters, Newtons, ...)
If the header above contains a line with 'inDegrees', this indicates whether rotational values are in degrees (yes) or radians (no).

endheader
time	pelvis_tilt	pelvis_list	pelvis_rotation	pelvis_tx	pelvis_ty	pelvis_tz	hip_flexion_r	hip_adduction_r	hip_rotation_r	knee_angle_r	knee_angle_r_beta	ankle_angle_r	subtalar_angle_r	mtp_angle_r	hip_flexion_l	hip_adduction_l	hip_rotation_l	knee_angle_l	knee_angle_l_beta	ankle_angle_l	subtalar_angle_l	mtp_angle_l	lumbar_extension	lumbar_bending	lumbar_rotation	arm_flex_r	arm_add_r	arm_rot_r	elbow_flex_r	pro_sup_r	wrist_flex_r	wrist_dev_r	arm_flex_l	arm_add_l	arm_rot_l	elbow_flex_l	pro_sup_l	wrist_flex_l	wrist_dev_l
      1.70500000	     -9.70553369	     -3.97256981	      1.86062495	      0.15761141	      0.53092457	     -1.21987625	     84.05323683	    -45.27994233	      5.63835977	    109.26392118	      1.90701518	     29.63741394	      9.16023338	      0.00000000	     94.56683575	    -41.79028588	     17.12722257	    109.48306327	      1.91083993	     28.93899922	     17.65883237	      0.00000000	      0.00000000	      0.00000000	      0.00000000	     43.96673493	    -15.98784879	     43.96673493	     75.64706124	     44.84392776	      0.00000000	      0.00000000	     43.96673493	    -15.98784879	     43.96673493	     75.64706124	     44.84392776	      0.00000000	      0.00000000
      1.71000000	     -9.63386363	     -4.10055581	      1.93638810	      0.15779410	      0.52909864	     -1.22019614	     84.12546506	    -45.42986798	      5.71436743	    109.52594735	      1.91158840	     29.73164274	      9.40407034	      0.00000000	     94.97813370	    -41.76777692	     17.55372961	    109.78210522	      1.91605920	     28.98772876	     17.83701671	      0.00000000	      0.00000000	      0.00000000	      0.00000000	     44.01342876	    -15.91822616	     44.01342876	     75.56823684	     44.88156789	      0.00000000	      0.00000000	     44.01342876	    -15.91822616	     44.01342876	     75.56823684	     44.88156789	      0.00000000	      0.00000000
      1.71500000	     -9.47628531	     -4.16064721	      2.03160998	      0.15793928	      0.52761333	     -1.22051005	     84.13306059	    -45.59633163	      5.85375893	    109.75947099	      1.91566415	     29.88035240	      9.59587979	      0.00000000	     95.16039214	    -41.72607210	     17.83931538	    110.04787015	      1.92069767	     29.10670851	     17.97153576	      0.00000000	      0.00000000	      0.00000000	      0.00000000	     44.05950434	    -15.86010798	     44.05950434	     75.52498317	     44.88295441	      0.00000000	      0.00000000	     44.05950434	    -15.86010798	     44.05950434	     75.52498317	     44.88295441	      0.00000000	      0.00000000
      1.72000000	     -9.34673025	     -4.15818106	      2.00497887	      0.15805631	      0.52605676	     -1.22050794	     84.29051879	    -45.61950887	      6.12160726	    110.01154388	      1.92006366	     29.98341294	      9.69360723	      0.00000000	     95.32811521	    -41.83446261	     18.05287792	    110.30624840	      1.92520722	     29.20541977	     18.10616790	      0.00000000	      0.00000000	      0.00000000	      0.00000000	     44.10250873	    -15.80682542	     44.10250873	     75.48586983	     44.88439009	      0.00000000	      0.00000000	     44.10250873	    -15.80682542	     44.10250873	     75.48586983	     44.88439009	      0.00000000	      0.00000000
      1.72500000	     -9.21120157	     -4.22355495	      2.05786133	      0.15817985	      0.52453903	     -1.22074499	     84.32913514	    -45.72763632	      6.25675504	    110.24328703	      1.92410834	     30.10268279	      9.78300971	      0.00000000	     95.54686369	    -41.83243613	     18.35842521	    110.56545114	      1.92973116	     29.31110523	     18.25920873	      0.00000000	      0.00000000	      0.00000000	      0.00000000	     44.14350236	    -15.75704408	     44.14350236	     75.45012245	     44.88547350	      0.00000000	      0.00000000	     44.14350236	    -15.75704408	     44.14350236	     75.45012245	     44.88547350	      0.00000000	      0.00000000
      1.73000000	     -9.08213393	     -4.28209641	      2.07889079	      0.15830498	      0.52300613	     -1.22091679	     84.39355934	    -45.80029257	      6.41441754	    110.47593714	      1.92816885	     30.21069068	      9.91083057	      0.00000000	     95.77549067	    -41.86598398	     18.65843457	    110.82757214	      1.93430604	     29.40323925	     18.35768995	      0.00000000	      0.00000000	      0.00000000	      0.00000000	     44.18207336	    -15.71103351	     44.18207336	     75.41754141	     44.88661415	      0.00000000	      0.00000000	     44.18207336	    -15.71103351	     44.18207336	     75.41754141	     44.88661415	      0.00000000	      0.00000000
      1.73500000	     -8.93335472	     -4.34834120	      2.08591963	      0.15844992	      0.52158740	     -1.22106585	     84.40198990	    -45.85155504	      6.53547652	    110.69238915	      1.93194665	     30.33324821	      9.98101620	      0.00000000	     95.97395019	    -41.92371205	     18.95995348	    111.08187719	      1.93874450	     29.51310701	     18.53435564	      0.00000000	      0.00000000	      0.00000000	      0.00000000	     44.21886381	    -15.66796081	     44.21886381	     75.38758082	     44.88763533	      0.00000000	      0.00000000	     44.21886381	    -15.66796081	     44.21886381	     75.38758082	     44.88763533	      0.00000000	      0.00000000
      1.74000000	     -8.76435351	     -4.44254507	      2.16698758	      0.15858261	      0.52017012	     -1.22140494	     84.35681076	    -46.00362038	      6.60928625	    110.91056874	      1.93575460	     30.43975006	     10.13689822	      0.00000000	     96.18014408	    -41.88407907	     19.29714779	    111.33365194	      1.94313879	     29.60133059	     18.63380755	      0.00000000	      0.00000000	      0.00000000	      0.00000000	     44.25354730	    -15.62802142	     44.25354730	     75.36012068	     44.88866027	      0.00000000	      0.00000000	     44.25354730	    -15.62802142	     44.25354730	     75.36012068	     44.88866027	      0.00000000	      0.00000000
      1.74500000	     -8.61870097	     -4.51990326	      2.19960940	      0.15873151	      0.51871712	     -1.22161239	     84.35412634	    -46.07486656	      6.73127743	    111.12768369	      1.93954397	     30.57012379	     10.27103998	      0.00000000	     96.39743052	    -41.89183128	     19.63413574	    111.59316370	      1.94766813	     29.70771858	     18.74044248	      0.00000000	      0.00000000	      0.00000000	      0.00000000	     44.28592807	    -15.59143329	     44.28592807	     75.33542490	     44.88954059	      0.00000000	      0.00000000	     44.28592807	    -15.59143329	     44.28592807	     75.33542490	     44.88954059	      0.00000000	      0.00000000
      1.75000000	     -8.46394917	     -4.60999505	      2.23755038	      0.15886548	      0.51730289	     -1.22185509	     84.32650412	    -46.15936663	      6.81745061	    111.34062488	      1.94326050	     30.68192632	     10.37729874	      0.00000000	     96.61344533	    -41.88987291	     19.97981840	    111.84442669	      1.95205350	     29.80880793	     18.86349531	      0.00000000	      0.00000000	      0.00000000	      0.00000000	     44.31667298	    -15.55725667	     44.31667298	     75.31263932	     44.89043082	      0.00000000	      0.00000000	     44.31667298	    -15.55725667	     44.31667298	     75.31263932	     44.89043082	      0.00000000	      0.00000000
      1.75500000	     -8.32435735	     -4.72928150	      2.30716316	      0.15900656	      0.51586046	     -1.22222081	     84.27143036	    -46.28279005	      6.85443224	    111.54244789	      1.94678297	     30.78994124	     10.52231237	      0.00000000	     96.87324380	    -41.83495064	     20.36044494	    112.10491887	      1.95659994	     29.89986242	     18.94439409	      0.00000000	      0.00000000	      0.00000000	      0.00000000	     44.34640531	    -15.52467936	     44.34640531	     75.29103677	     44.89175107	      0.00000000	      0.00000000	     44.34640531	    -15.52467936	     44.34640531	     75.29103677	     44.89175107	      0.00000000	      0.00000000
      1.76000000	     -8.09183947	     -4.73897530	      2.40400593	      0.15918102	      0.51462062	     -1.22252617	     84.22195481	    -46.46346470	      7.06468384	    111.75650290	      1.95051894	     30.98334036	     10.81879253	      0.00000000	     96.88123952	    -41.78130009	     20.55658445	    112.35191175	      1.96091078	     30.02625187	     18.98928721	      0.00000000	      0.00000000	      0.00000000	      0.00000000	     44.37549588	    -15.49309705	     44.37549588	     75.26980224	     44.89461851	      0.00000000	      0.00000000	     44.37549588	    -15.49309705	     44.37549588	     75.26980224	     44.89461851	      0.00000000	      0.00000000
      1.76500000	     -8.00116829	     -4.80388614	      2.37827490	      0.15926547	      0.51300607	     -1.22264392	     84.35298978	    -46.46599578	      7.23149504	    111.98359620	      1.95448246	     31.01966361	     10.80499193	      0.00000000	     97.15703478	    -41.81777985	     20.90431806	    112.61060874	      1.96542590	     30.12077907	     19.13511248	      0.00000000	      0.00000000	      0.00000000	      0.00000000	     44.40022818	    -15.46698910	     44.40022818	     75.25313915	     44.89542225	      0.00000000	      0.00000000	     44.40022818	    -15.46698910	     44.40022818	     75.25313915	     44.89542225	      0.00000000	      0.00000000
